<svg xmlns="http://www.w3.org/2000/svg" width="1200" height="900" viewBox="0 0 1200 900" role="img" aria-labelledby="title desc">
  <title id="title">Objawy w sieci 2026</title>
  <desc id="desc">Okładka raportu Santander Consumer Bank i Biustowniczek</desc>
  <defs><linearGradient id="bg" x1="0" y1="0" x2="1" y2="1"><stop stop-color="#dceaf0"/><stop offset="1" stop-color="#e9e0ef"/></linearGradient></defs>
  <rect width="1200" height="900" fill="url(#bg)"/>
  <g fill="none" stroke="#2b6073" stroke-width="12" opacity=".42">
    <circle cx="205" cy="208" r="37"/><circle cx="395" cy="145" r="28"/><circle cx="420" cy="377" r="44"/><circle cx="181" cy="539" r="31"/><circle cx="363" cy="691" r="36"/>
    <path d="m239 197 128-42M231 235l156 119M213 246l-25 261M207 553l128 113M404 421l-33 235"/>
  </g>
  <circle cx="905" cy="154" r="254" fill="#7c4b92" opacity=".1"/>
  <text x="570" y="183" fill="#2b6073" font-family="Arial, sans-serif" font-size="27" font-weight="700" letter-spacing="4">RAPORT • KWIECIEŃ 2026</text>
  <text x="570" y="320" fill="#163d4b" font-family="Georgia, serif" font-size="82" font-weight="700">Objawy</text>
  <text x="570" y="415" fill="#7c4b92" font-family="Georgia, serif" font-size="82" font-style="italic">w sieci</text>
  <line x1="570" y1="479" x2="1080" y2="479" stroke="#2b6073" stroke-width="6"/>
  <text x="570" y="548" fill="#163d4b" font-family="Arial, sans-serif" font-size="27">Jak Polki szukają informacji</text>
  <text x="570" y="591" fill="#163d4b" font-family="Arial, sans-serif" font-size="27">o zdrowiu w internecie</text>
  <text x="570" y="754" fill="#2b6073" font-family="Arial, sans-serif" font-size="27" font-weight="700">Santander Consumer Bank</text>
  <text x="570" y="795" fill="#7c4b92" font-family="Arial, sans-serif" font-size="27" font-weight="700">Biustowniczki</text>
</svg>
